<svg width="822" height="604" viewBox="0 0 822 604" fill="none" xmlns="http://www.w3.org/2000/svg">
<g clip-path="url(#clip0_201_2)">
<g opacity="0.04">
<path d="M261.554 475.99C264.667 455.958 271.654 432.983 282.295 407.703C293.415 381.659 306.566 356.302 321.658 331.807C337.368 306.095 354.906 281.254 374.173 257.428C392.225 234.838 412.278 213.498 434.148 193.6C454.198 175.517 473.231 161.893 490.469 153.104C507.079 144.615 521.397 140.998 533.012 142.31C544.626 143.622 552.91 149.806 557.69 160.768C562.621 172.013 563.551 187.96 560.437 207.992C557.322 228.026 550.336 251.094 539.696 276.281C528.577 302.327 515.418 327.685 500.31 352.177C484.631 377.897 467.113 402.744 447.861 426.574C429.802 449.16 409.749 470.499 387.885 490.401C367.706 508.485 348.738 522.109 331.521 530.898C314.889 539.387 300.571 543.003 288.978 541.692C277.385 540.38 269.08 534.196 264.3 523.233C259.347 511.99 258.439 496.042 261.554 476.009V475.99ZM259.888 477.49C246.911 560.357 304.183 566.878 387.625 492.032C471.068 417.185 549.19 289.379 562.081 206.512C574.971 123.645 517.808 117.124 434.473 191.97C351.138 266.817 272.909 394.622 259.996 477.49H259.888Z" stroke="#00D54B" stroke-width="2"/>
<path d="M247.105 473.723C252.902 451.741 262.851 426.873 276.693 400.019C290.981 372.497 307.27 345.789 325.465 320.056C344.124 293.442 364.599 267.817 386.782 243.317C407.181 220.487 429.598 199.065 453.83 179.246C475.956 161.462 496.287 148.513 514.26 140.773C531.563 133.277 546.054 130.935 557.149 133.783C568.244 136.632 575.491 144.54 578.627 157.283C581.871 170.401 580.573 188.316 574.777 210.279C568.98 232.242 559.031 257.128 545.189 283.983C530.903 311.508 514.605 338.216 496.395 363.945C477.743 390.559 457.276 416.184 435.1 440.685C414.653 463.514 392.193 484.936 367.922 504.756C345.796 522.54 325.465 535.489 307.514 543.228C290.211 550.724 275.72 553.067 264.625 550.219C253.529 547.37 246.283 539.462 243.147 526.719C239.903 513.601 241.179 495.686 246.997 473.723H247.105ZM245.18 475.184C221.195 566.054 275.936 580.127 367.446 506.555C458.956 432.983 552.608 299.705 576.593 208.817C600.579 117.929 545.838 103.874 454.306 177.447C362.774 251.019 269.166 384.296 245.18 475.184Z" stroke="#00D54B" stroke-width="2"/>
<path d="M233.35 469.449C243.657 442.282 256.683 415.946 272.281 390.742C289.885 361.949 309.464 334.095 330.916 307.332C352.549 280.061 375.998 253.906 401.143 229C423.928 206.202 448.74 184.986 475.35 165.547C499.336 148.325 520.9 136.313 539.435 129.791C557.365 123.495 571.726 122.595 582.152 127.093C592.576 131.59 598.503 141.26 599.8 155.839C601.141 170.944 597.421 190.677 588.748 214.495C578.449 241.665 565.422 268.002 549.817 293.202C532.297 321.982 512.797 349.823 491.421 376.575C469.78 403.841 446.331 429.996 421.192 454.908C398.407 477.705 373.596 498.921 346.985 518.361C322.999 535.582 301.435 547.595 282.878 554.116C264.97 560.413 250.609 561.312 240.184 556.814C229.759 552.317 223.833 542.647 222.535 528.068C221.194 512.963 224.914 493.23 233.587 469.412L233.35 469.449ZM231.619 470.818C195.738 569.333 247.083 591.483 346.25 520.328C445.416 449.173 554.727 311.642 590.608 213.146C626.49 114.649 575.144 92.4803 475.977 163.635C376.811 234.79 267.241 372.359 231.424 470.855L231.619 470.818Z" stroke="#00D54B" stroke-width="2"/>
<path d="M220.61 463.06C234.244 434.252 250.555 406.45 269.382 379.93C311.315 320.315 360.813 264.95 416.953 214.87C441.969 192.366 469.035 171.641 497.887 152.898C523.603 136.557 546.248 125.688 565.194 120.628C583.514 115.737 597.637 116.43 607.132 122.689C616.627 128.948 621.083 140.435 620.325 156.852C619.569 173.849 613.232 195.418 601.509 220.942C587.875 249.75 571.564 277.551 552.737 304.071C531.858 333.869 509.017 362.602 484.326 390.124C459.707 417.752 433.277 444.131 405.165 469.131C380.142 491.637 353.07 512.361 324.211 531.104C298.516 547.445 275.87 558.314 256.903 563.373C238.605 568.265 224.46 567.572 214.987 561.312C205.513 555.053 201.036 543.566 201.772 527.15C202.55 510.153 208.887 488.583 220.61 463.06ZM218.447 464.39C169.956 569.989 216.847 600.797 323.194 533.203C429.541 465.608 555.051 325.191 603.542 219.612C652.033 114.031 605.142 83.2044 498.796 150.799C392.448 218.393 266.938 358.792 218.447 464.39Z" stroke="#00D54B" stroke-width="2"/>
<path d="M208.974 454.401C226.036 424.18 245.731 395.131 267.89 367.505C292.122 336.967 318.312 307.63 346.337 279.634C373.865 251.95 403.22 225.67 434.256 200.927C464.925 176.565 494.297 156.589 521.57 141.41C548.844 126.23 572.375 116.804 591.517 113.412C610.009 110.133 623.635 112.569 632.027 120.665C640.419 128.76 643.166 142.122 640.181 160.337C637.066 179.208 627.939 202.501 612.994 229.674C595.949 259.902 576.252 288.953 554.078 316.57C529.861 347.112 503.677 376.45 475.653 404.441C448.125 432.125 418.769 458.405 387.734 483.148C357.064 507.51 327.693 527.487 300.419 542.666C273.146 557.845 249.614 567.271 230.473 570.663C211.981 573.942 198.354 571.506 189.963 563.411C181.571 555.315 178.824 541.954 181.809 523.739C184.902 504.867 194.05 481.574 208.974 454.401ZM206.812 455.657C145.062 567.665 186.459 607.58 299.251 544.821C412.044 482.061 553.494 340.351 615.243 228.343C676.992 116.336 635.596 76.42 522.803 139.179C410.011 201.939 268.496 343.649 206.746 455.657H206.812Z" stroke="#00D54B" stroke-width="2"/>
<path d="M198.982 443.402C219.53 411.996 242.697 381.932 268.301 353.451C295.857 322.498 325.383 292.9 356.74 264.793C387.066 237.376 419.233 211.533 453.073 187.398C486.273 163.917 517.634 145.064 546.249 131.366C574.863 117.667 599.108 110.021 618.184 108.485C636.613 107.023 649.546 111.371 656.597 121.396C663.647 131.422 664.469 146.639 659.063 166.596C653.439 187.21 641.327 212.172 623.073 240.6C602.517 272.002 579.35 302.065 553.754 330.551C526.185 361.495 496.66 391.093 465.315 419.209C434.965 446.633 402.769 472.476 368.895 496.604C335.717 520.085 304.356 538.937 275.719 552.636C247.084 566.335 222.903 574.018 203.805 575.555C185.377 577.016 172.444 572.669 165.393 562.643C158.342 552.617 157.498 537.401 162.927 517.443C168.551 496.829 180.662 471.868 198.916 443.439L198.982 443.402ZM196.559 444.564C121.12 562.193 155.725 611.535 274.227 554.922C392.73 498.309 549.882 357.087 625.409 239.476C700.936 121.864 666.157 72.4667 547.763 129.08C429.368 185.692 272.108 326.915 196.559 444.526V444.564Z" stroke="#00D54B" stroke-width="2"/>
<path d="M190.655 429.91C214.719 397.623 241.396 366.856 270.486 337.841C301.323 306.81 334.142 277.299 368.787 249.446C401.815 222.68 436.702 197.691 473.253 174.618C508.81 152.355 541.902 135.058 571.662 123.196C601.423 111.334 626.014 105.599 644.81 106.161C662.955 106.724 674.916 113.095 680.41 125.126C685.904 137.157 684.606 154.191 676.56 175.817C668.255 198.305 653.028 224.54 631.335 254.093C607.278 286.379 580.607 317.145 551.526 346.162C520.702 377.197 487.89 406.709 453.246 434.557C420.215 461.328 385.321 486.317 348.759 509.385C313.224 531.648 280.11 548.945 250.371 560.807C220.632 572.669 196.019 578.404 177.224 577.842C159.077 577.279 147.095 570.908 141.623 558.877C136.151 546.846 137.427 529.811 145.473 508.186C153.778 485.792 169.004 459.463 190.698 429.91H190.655ZM188.255 430.885C98.5395 553.068 125.531 612.323 248.598 563.225C371.664 514.127 544.064 375.302 633.714 253.119C723.364 130.935 696.437 71.6802 573.371 120.778C450.304 169.877 277.925 308.701 188.168 430.885H188.255Z" stroke="#00D54B" stroke-width="2"/>
<path d="M184.447 413.905C212.036 381.045 242.245 349.899 274.854 320.694C308.862 289.967 344.867 260.948 382.694 233.778C418.221 208.037 455.622 184.301 494.664 162.717C532.319 142.103 566.925 126.756 597.508 117.048C628.09 107.341 652.833 103.93 671.044 106.741C688.628 109.496 699.4 117.985 703.076 132.096C706.753 146.208 703.076 165.022 692.262 188.185C681.08 212.172 662.653 239.738 637.477 270.096C609.923 302.948 579.758 334.094 547.2 363.308C513.187 394.03 477.182 423.049 439.36 450.223C403.832 475.965 366.432 499.701 327.39 521.284C289.734 541.898 255.129 557.246 224.546 566.953C193.964 576.66 169.221 580.07 151.01 577.26C133.426 574.505 122.633 566.016 118.956 551.905C115.279 537.794 118.956 518.979 129.771 495.817C140.953 471.83 159.38 444.264 184.556 413.905H184.447ZM182.047 414.692C77.9052 540.249 96.0297 609.586 222.513 569.445C348.996 529.305 535.996 394.922 640.159 269.309C744.322 143.696 726.175 74.4154 599.671 114.556C473.165 154.697 286.101 289.079 181.938 414.692H182.047Z" stroke="#00D54B" stroke-width="2"/>
<path d="M180.641 395.409C211.693 362.333 245.38 331.18 281.452 302.179C318.487 272.168 357.529 244.072 398.375 218.037C436.179 193.7 475.859 171.629 517.137 151.979C556.609 133.483 592.404 120.459 623.506 113.263C654.607 106.067 679.134 105.13 696.437 110.565C713.156 115.755 722.391 126.531 724.1 142.647C725.809 158.763 719.623 179.377 705.932 203.945C691.744 229.356 670.007 257.897 641.306 288.78C610.254 321.856 576.568 353.009 540.495 382.01C503.456 412.016 464.414 440.112 423.572 466.152C385.81 490.42 346.182 512.428 304.961 532.022C265.468 550.518 229.695 563.542 198.593 570.739C167.491 577.934 142.748 578.871 125.446 573.531C108.727 568.34 99.4913 557.564 97.7609 541.449C96.0306 525.332 102.26 504.718 115.951 480.151C130.204 454.739 151.94 426.199 180.641 395.409ZM178.089 395.99C59.4136 523.721 67.5028 603.14 196.127 573.381C324.752 543.622 525.226 415.966 643.837 288.199C762.447 160.431 754.423 81.0494 625.798 110.808C497.174 140.567 296.678 268.222 178.089 395.99Z" stroke="#00D54B" stroke-width="2"/>
<path d="M179.516 374.121C213.95 341.215 251.035 310.467 290.492 282.109C330.357 253.237 372.253 226.538 415.937 202.165C455.702 179.696 497.335 159.815 540.495 142.684C581.46 126.737 618.077 116.449 649.33 112.12C680.583 107.791 704.591 109.646 720.704 117.742C736.276 125.5 743.847 138.637 743.219 156.815C742.592 174.992 733.81 197.236 717.07 223.004C699.768 249.67 674.678 278.923 642.495 309.956C608.069 342.862 570.991 373.61 531.542 401.968C491.672 430.835 449.776 457.534 406.096 481.912C366.297 504.385 324.627 524.266 281.429 541.392C240.465 557.339 203.848 567.628 172.595 571.957C141.342 576.285 117.313 574.43 101.221 566.335C85.6704 558.576 78.1004 545.44 78.7276 527.263C79.3548 509.085 88.1794 486.841 104.898 460.998C122.201 434.332 147.311 405.079 179.473 374.046L179.516 374.121ZM176.921 374.402C43.8409 502.769 40.6615 592.29 170.021 574.355C299.381 556.421 511.989 437.817 645.069 309.45C778.149 181.082 781.328 91.5624 651.969 109.496C522.609 127.431 310 246.11 176.921 374.477V374.402Z" stroke="#00D54B" stroke-width="2"/>
<path d="M181.29 350.435C218.938 318.107 259.267 288.213 301.955 260.99C344.358 233.712 388.792 208.89 434.97 186.687C476.461 166.468 519.781 149.208 564.503 135.077C606.571 122.146 643.62 115.026 674.635 113.901C705.651 112.777 728.706 117.649 743.327 128.574C757.408 139.069 762.966 154.623 759.851 174.806C756.737 194.988 745.101 218.769 725.246 245.511C704.72 273.208 676.257 302.854 640.679 333.587C603.021 365.906 562.693 395.8 520.014 423.033C477.608 450.306 433.173 475.128 386.998 497.336C345.507 517.532 302.185 534.766 257.465 548.87C215.419 561.801 178.37 568.922 147.355 570.046C116.339 571.17 93.2839 566.298 78.6627 555.373C64.5826 544.878 59.0241 529.324 62.1386 509.142C65.2531 488.959 76.8892 465.179 96.7438 438.437C117.27 410.739 145.711 381.093 181.311 350.36L181.29 350.435ZM178.76 350.36C31.5343 477.865 16.1781 577.298 144.456 572.632C272.735 567.966 496.027 460.999 643.252 333.569C790.478 206.138 805.812 106.818 677.534 111.39C549.255 115.963 325.941 223.004 178.738 350.435L178.76 350.36Z" stroke="#00D54B" stroke-width="2"/>
<path d="M186.307 324.067C226.991 292.768 270.374 264.207 316.078 238.633C360.743 213.425 407.428 191.011 455.776 171.563C502.862 152.711 547.654 138.543 588.921 129.455C631.616 120.085 668.666 116.468 698.989 118.904C729.312 121.34 751.135 129.567 763.874 143.415C776.137 156.777 779.403 174.786 773.586 196.918C767.767 219.05 753.168 244.217 730.199 271.69C706.407 300.118 674.635 329.783 635.747 359.935C595.067 391.239 551.684 419.8 505.977 445.37C461.321 470.582 414.644 492.995 366.299 512.44C319.215 531.292 274.421 545.459 233.154 554.548C190.439 563.918 153.41 567.535 123.065 565.098C92.7207 562.662 70.9411 554.435 58.1803 540.587C45.9385 527.225 42.6727 509.216 48.4907 487.085C54.3087 464.953 68.908 439.785 91.8776 412.313C115.669 383.884 147.441 354.22 186.307 324.067ZM183.842 323.861C23.0124 448.443 -5.64535 557.565 119.822 567.572C245.288 577.579 477.34 484.723 638.148 360.141C798.956 235.559 827.634 126.437 702.168 116.524C576.701 106.611 344.628 199.279 183.842 323.861Z" stroke="#00D54B" stroke-width="2"/>
<path d="M194.829 295.339C280.391 236.874 375.917 190.281 477.989 157.227C526.394 141.804 571.942 131.309 613.34 126.063C656.208 120.628 692.738 121.059 721.915 127.356C751.092 133.652 771.184 145.44 781.631 162.38C791.688 178.759 792.445 199.223 783.686 223.21C774.926 247.196 757.299 273.545 731.15 301.448C704.092 330.345 669.076 359.672 627.073 388.663C583.654 418.466 537.514 445.164 489.106 468.494C442.533 491.179 393.98 510.665 343.892 526.776C295.466 542.198 249.938 552.692 208.52 557.94C165.673 563.374 129.144 562.943 99.9449 556.646C70.7463 550.35 50.6968 538.563 40.2503 521.622C30.1713 505.243 29.436 484.779 38.1955 460.793C46.955 436.805 64.6255 410.401 90.8394 382.554C117.896 353.657 152.913 324.329 194.893 295.339H194.829ZM192.515 294.833C18.8381 414.767 -24.0945 532.959 96.614 559.064C217.323 585.169 455.949 509.066 629.604 389.207C803.259 269.347 846.194 151.08 725.505 124.976C604.818 98.8712 366.105 174.974 192.493 294.833H192.515Z" stroke="#00D54B" stroke-width="2"/>
<path d="M207.092 264.324C252.995 236.453 301.629 212.124 352.436 191.614C400.48 171.97 450.416 156.005 501.672 143.903C550.899 132.434 596.665 126.137 637.672 125.163C680.128 124.188 715.534 128.911 743.154 139.48C770.774 150.05 788.573 165.491 796.403 185.636C803.952 205.088 801.811 227.988 790.023 253.718C778.236 279.447 757.407 306.695 728.122 334.729C697.842 363.739 659.69 392.298 614.832 419.64C568.924 447.502 520.291 471.832 469.489 492.35C421.444 511.991 371.508 527.956 320.253 540.062C271.026 551.53 225.26 557.827 184.253 558.802C141.774 559.776 106.391 554.96 78.7708 544.484C51.1513 534.009 33.3511 518.473 25.4999 498.328C17.9516 478.876 20.1145 455.976 31.9884 430.246C43.8625 404.517 64.5826 377.269 93.8889 349.234C124.169 320.225 162.321 291.666 207.179 264.324H207.092ZM205.016 263.462C19.5088 376.52 -38.5852 503.331 75.2454 546.714C189.076 590.097 431.791 533.596 617.298 420.54C802.806 307.482 860.903 180.67 747.069 137.288C633.238 93.9048 390.524 150.405 204.995 263.462H205.016Z" stroke="#00D54B" stroke-width="2"/>
<path d="M223.291 231.173C271.293 205.763 321.99 184.389 374.691 167.346C423.846 151.19 474.716 139.264 526.566 131.74C576.052 124.806 621.45 123.214 661.485 127.018C702.925 131.065 736.86 140.642 762.187 155.54C787.514 170.438 802.827 189.946 807.606 213.315C812.278 235.802 807.023 261.195 792.012 288.499C777.002 315.802 753.081 343.706 720.639 371.497C687.136 400.244 646.107 427.585 598.697 452.753C550.696 478.163 499.999 499.537 447.298 516.58C398.139 532.702 347.269 544.597 295.423 552.092C245.937 559.026 200.538 560.619 160.482 556.815C118.956 552.935 85.1293 543.453 59.7806 528.462C34.432 513.469 19.1623 494.055 14.3608 470.687C9.71064 448.199 14.9448 422.806 29.9766 395.503C45.0083 368.198 69.016 340.295 101.35 312.504C134.875 283.757 175.904 256.416 223.314 231.249L223.291 231.173ZM221.151 230.03C25.0885 334.036 -48.9241 468.494 55.8875 530.448C160.699 592.401 404.668 558.126 600.773 454.045C796.879 349.965 870.893 215.507 766.08 153.553C661.268 91.5996 417.429 125.874 221.215 229.955L221.151 230.03Z" stroke="#00D54B" stroke-width="2"/>
<path d="M243.623 196.15C293.362 173.664 345.714 155.818 399.802 142.91C449.605 130.803 500.816 123.569 552.477 121.341C601.596 119.467 645.977 123.083 684.411 132.097C724.207 141.467 755.785 156.103 778.452 175.798C801.119 195.494 813.252 218.9 814.723 245.642C816.151 271.371 807.542 298.956 789.158 327.628C770.774 356.3 743.565 384.578 708.246 411.713C671.672 439.823 627.961 465.422 578.475 487.853C528.736 510.339 476.384 528.186 422.296 541.093C372.493 553.199 321.282 560.435 269.621 562.662C220.502 564.536 176.099 560.919 137.687 551.905C97.8908 542.536 66.3128 527.9 43.6678 508.204C21.0228 488.509 8.65134 465.009 7.2671 438.362C5.83962 412.632 14.4477 385.047 32.8104 356.375C51.1729 327.703 78.4247 299.424 113.744 272.289C150.318 244.18 194.007 218.581 243.623 196.15ZM241.763 194.519C36.5737 287.338 -54.0712 428.598 39.4719 510.041C133.015 591.484 375.038 582.283 580.184 489.428C785.329 396.572 875.954 255.405 782.518 173.962C689.083 92.5188 446.952 101.72 241.806 194.576L241.763 194.519Z" stroke="#00D54B" stroke-width="2"/>
<path d="M268.193 159.476C319.236 140.426 372.719 126.717 427.508 118.641C477.523 111.049 528.456 109.052 579.059 112.701C627.096 116.449 669.898 125.819 705.975 140.342C743.392 155.446 772.158 175.61 791.429 200.309C810.517 224.376 819.57 253.36 817.105 282.483C814.939 311.361 802.762 341.101 780.939 370.879C759.116 400.657 728.706 428.972 690.576 455.058C651.125 482.062 605.057 505.449 553.71 524.582C502.666 543.63 449.184 557.338 394.395 565.417C344.38 573.009 293.446 575.006 242.844 571.357C194.786 567.609 152.005 558.239 115.929 543.716C78.4896 528.611 49.7454 508.448 30.4745 483.748C11.3916 459.68 2.35085 430.695 4.8447 401.575C7.00755 372.697 19.1844 342.938 41.094 313.179C63.0037 283.42 93.3265 255.086 131.436 229C173.324 200.752 219.3 177.379 268.193 159.476ZM266.657 157.414C54.2009 236.608 -53.4224 383.397 26.3002 485.36C106.022 587.323 342.854 605.744 555.332 526.588C767.81 447.431 875.431 300.642 795.69 198.641C715.946 96.6409 479.114 78.2947 266.657 157.414Z" stroke="#00D54B" stroke-width="2"/>
<path d="M297.262 121.508C349.176 106.371 403.222 97.4132 457.918 94.8787C507.714 92.3448 557.67 96.1711 606.181 106.235C652.422 116.111 692.695 131.534 725.873 152.11C760.219 173.399 785.416 199.297 800.772 229.055C816.11 258.736 820.868 291.711 814.42 323.748C808.343 355.699 792.402 387.463 767.032 418.046C741.662 448.63 708.202 476.645 667.541 501.194C623.572 527.416 575.504 548.056 524.793 562.492C472.879 577.629 418.833 586.587 364.137 589.121C314.334 591.655 264.371 587.828 215.852 577.765C169.61 567.889 129.338 552.466 96.1816 531.89C61.771 510.602 36.5521 484.704 21.1959 454.945C5.85589 425.264 1.11061 392.288 7.57003 360.252C13.6476 328.301 29.5877 296.538 54.9364 265.954C80.2849 235.371 113.788 207.355 154.427 182.806C198.394 156.582 246.463 135.941 297.175 121.508H297.262ZM295.899 119.071C78.3384 182.131 -46.6309 333.08 16.8918 456.2C80.4147 579.321 308.335 628.007 525.982 564.891C743.63 501.776 868.624 350.883 805.098 227.763C741.575 104.642 513.655 55.9561 295.986 119.071H295.899Z" stroke="#00D54B" stroke-width="2"/>
<path d="M330.721 82.6054C383.114 71.9075 437.107 68.3167 490.771 71.9611C539.959 75.1337 588.198 85.3611 633.519 102.226C677.144 118.717 714.215 140.718 743.652 167.59C773.275 194.131 794.672 226.73 805.855 262.357C816.697 297.475 816.771 334.436 806.071 369.586C795.755 404.499 775.791 437.986 746.96 469.132C718.13 500.278 681.642 527.507 638.667 550.05C592.97 573.816 543.223 591.171 491.269 601.472C438.874 612.171 384.883 615.761 331.218 612.117C282.03 608.944 233.791 598.717 188.47 581.852C144.846 565.361 107.774 543.361 78.338 516.487C47.9068 488.603 26.9487 456.726 16.1129 421.646C5.28067 386.527 5.20612 349.568 15.8966 314.416C26.235 279.504 46.1764 246.016 75.0072 214.871C103.838 183.725 140.347 156.571 183.322 134.027C229.017 110.258 278.765 92.903 330.721 82.6054ZM329.833 79.7382C109.331 124.245 -33.0703 277.743 11.7439 422.602C56.5581 567.46 271.653 648.772 492.155 604.265C712.658 559.757 855.059 406.26 810.245 261.327C765.431 116.393 550.336 35.2312 329.833 79.7382Z" stroke="#00D54B" stroke-width="2"/>
<path d="M368.658 43.1954C421.115 37.4774 474.328 39.8886 525.81 50.3166C573.905 59.9188 619.565 77.0672 660.534 100.914C699.618 123.526 733.007 152.768 758.683 186.874C784.258 220.927 800.519 259.592 806.223 299.918C811.928 340.245 806.927 381.168 791.602 419.565C776.217 458.046 751.98 493.422 720.358 523.552C687.292 555.306 647.787 581.538 603.802 600.947C508.865 642.842 399.932 654.433 296.115 633.686C248.027 624.084 202.374 606.936 161.414 583.089C122.329 560.476 88.9411 531.234 63.2637 497.129C37.6784 463.08 21.407 424.417 15.6908 384.091C9.97456 343.764 14.9646 302.839 30.2803 264.438C45.7045 225.947 69.9861 190.571 101.654 160.45C134.72 128.697 174.226 102.464 218.21 83.0549C265.258 62.1444 316.222 48.6479 368.723 43.1954H368.658ZM368.247 39.8973C147.636 63.3594 -12.198 217.663 11.377 384.522C34.9521 551.381 233.112 667.586 453.809 644.105C674.505 620.624 834.254 466.339 810.679 299.48C787.104 132.622 588.879 16.4163 368.182 39.8973H368.247Z" stroke="#00D54B" stroke-width="2"/>
<path d="M410.941 3.74793C501.007 3.79747 588.284 30.8202 657.988 80.2387C727.692 129.657 775.538 198.433 793.42 274.916C811.303 351.399 798.123 430.886 756.113 499.913C714.102 568.941 645.845 623.264 562.903 653.681C467.653 687.856 360.67 688.012 265.29 654.111C169.91 620.211 93.8709 555.006 53.7601 472.719C13.6494 390.433 12.7213 297.742 51.1784 214.865C89.6357 131.988 164.357 65.6502 259.044 30.321C307.099 12.7032 358.761 3.66519 410.941 3.74793ZM410.941 0C332.873 0 256.557 20.058 191.647 57.6376C126.735 95.2171 76.143 148.631 46.2676 211.123C16.3922 273.615 8.57545 342.38 23.8058 408.722C39.0361 475.064 76.6295 536.003 131.832 583.832C187.034 631.662 257.367 664.234 333.935 677.428C410.503 690.624 489.868 683.854 561.993 657.969C634.119 632.084 695.766 588.249 739.138 532.007C782.511 475.764 805.661 409.643 805.661 342.001C805.661 297.089 795.451 252.616 775.614 211.123C755.778 169.63 726.703 131.927 690.05 100.17C653.397 68.412 609.883 43.2204 561.993 26.0332C514.104 8.84612 462.776 0 410.941 0Z" stroke="#00D54B" stroke-width="2"/>
</g>
</g>
<defs>
<clipPath id="clip0_201_2">
<rect width="822" height="604" fill="white"/>
</clipPath>
</defs>
</svg>
