<svg width="155" height="190" viewBox="0 0 155 190" fill="none" xmlns="http://www.w3.org/2000/svg">
<g opacity="0.4" filter="url(#filter0_d_1091_9353)">
<path d="M105.462 27.0526H97.8901C95.6984 27.0526 93.9217 28.8293 93.9217 31.021C93.9139 38.6366 87.8216 44.809 80.3049 44.8169H60.1162C52.5995 44.809 46.5071 38.6366 46.4993 31.021C46.4993 28.8293 44.7226 27.0526 42.5309 27.0526H34.9592C30.0131 27.0592 26.0065 31.1185 26 36.1296V132.186C26.0052 137.197 30.0131 141.258 34.9592 141.263H105.462C110.408 141.258 114.416 137.197 114.421 132.186V36.1296C114.416 31.1185 110.408 27.0592 105.462 27.0526Z" fill="white"/>
<path d="M105.462 27.0526H97.8901C95.6984 27.0526 93.9217 28.8293 93.9217 31.021C93.9139 38.6366 87.8216 44.809 80.3049 44.8169H60.1162C52.5995 44.809 46.5071 38.6366 46.4993 31.021C46.4993 28.8293 44.7226 27.0526 42.5309 27.0526H34.9592C30.0131 27.0592 26.0065 31.1185 26 36.1296V132.186C26.0052 137.197 30.0131 141.258 34.9592 141.263H105.462C110.408 141.258 114.416 137.197 114.421 132.186V36.1296C114.416 31.1185 110.408 27.0592 105.462 27.0526Z" fill="url(#paint0_linear_1091_9353)" fill-opacity="0.56"/>
<path d="M60.4513 38.1053H79.9698C84.7517 38.1 88.6266 34.0568 88.6316 29.067C88.6316 26.8847 86.8625 25.1156 84.6801 25.1156H81.2878C80.2311 25.1156 79.3165 24.3473 79.089 23.2697C78.202 19.0573 74.4692 16 70.2112 16C65.9531 16 62.219 19.0573 61.3333 23.271C61.1071 24.3486 60.1912 25.1169 59.1345 25.1169H55.7409C53.5586 25.1169 51.7895 26.886 51.7895 29.0683C51.7958 34.0568 55.6706 38.1 60.4513 38.1053Z" fill="white"/>
<path d="M60.4513 38.1053H79.9698C84.7517 38.1 88.6266 34.0568 88.6316 29.067C88.6316 26.8847 86.8625 25.1156 84.6801 25.1156H81.2878C80.2311 25.1156 79.3165 24.3473 79.089 23.2697C78.202 19.0573 74.4692 16 70.2112 16C65.9531 16 62.219 19.0573 61.3333 23.271C61.1071 24.3486 60.1912 25.1169 59.1345 25.1169H55.7409C53.5586 25.1169 51.7895 26.886 51.7895 29.0683C51.7958 34.0568 55.6706 38.1 60.4513 38.1053Z" fill="url(#paint1_linear_1091_9353)" fill-opacity="0.56"/>
<path d="M78.3552 23.4245L78.3551 23.4242C77.54 19.5532 74.1087 16.75 70.2112 16.75C66.3136 16.75 62.8813 19.5531 62.0673 23.425L78.3552 23.4245ZM78.3552 23.4245C78.6512 24.8274 79.8549 25.8656 81.2878 25.8656H84.6801C86.448 25.8656 87.8812 27.2985 87.8816 29.0663C87.8769 33.6727 84.3077 37.3505 79.969 37.3553M78.3552 23.4245L79.969 37.3553M79.969 37.3553H60.4521C56.1147 37.3505 52.5453 33.6727 52.5395 29.0674C52.5399 27.2997 53.9731 25.8669 55.7409 25.8669H59.1345C60.5667 25.8669 61.7725 24.8293 62.0672 23.4253L79.969 37.3553ZM94.6717 31.0218V31.021C94.6717 29.2436 96.1126 27.8026 97.8901 27.8026L105.461 27.8026C105.461 27.8026 105.461 27.8026 105.462 27.8026C109.985 27.809 113.666 31.524 113.671 36.1304V132.185C113.666 136.792 109.984 140.508 105.461 140.513H34.96C30.4368 140.508 26.755 136.792 26.75 132.186V36.1301C26.7562 31.5236 30.4365 27.809 34.9595 27.8026C34.9597 27.8026 34.96 27.8026 34.9602 27.8026L42.5309 27.8026C44.3084 27.8026 45.7493 29.2436 45.7493 31.021V31.0218C45.7575 39.0417 52.1759 45.5586 60.1154 45.5669H60.1162H80.3049H80.3057C88.2451 45.5586 94.6635 39.0417 94.6717 31.0218Z" stroke="url(#paint2_radial_1091_9353)" stroke-opacity="0.52" stroke-width="1.5"/>
</g>
<g filter="url(#filter1_d_1091_9353)">
<path d="M50 85.6552L66.2791 104L94 72" stroke="url(#paint3_linear_1091_9353)" stroke-width="8" stroke-linecap="round" shape-rendering="crispEdges"/>
</g>
<defs>
<filter id="filter0_d_1091_9353" x="2" y="0" width="152.421" height="189.263" filterUnits="userSpaceOnUse" color-interpolation-filters="sRGB">
<feFlood flood-opacity="0" result="BackgroundImageFix"/>
<feColorMatrix in="SourceAlpha" type="matrix" values="0 0 0 0 0 0 0 0 0 0 0 0 0 0 0 0 0 0 127 0" result="hardAlpha"/>
<feOffset dx="8" dy="16"/>
<feGaussianBlur stdDeviation="16"/>
<feComposite in2="hardAlpha" operator="out"/>
<feColorMatrix type="matrix" values="0 0 0 0 0.0146945 0 0 0 0 0.191667 0 0 0 0 0.0770087 0 0 0 0.16 0"/>
<feBlend mode="normal" in2="BackgroundImageFix" result="effect1_dropShadow_1091_9353"/>
<feBlend mode="normal" in="SourceGraphic" in2="effect1_dropShadow_1091_9353" result="shape"/>
</filter>
<filter id="filter1_d_1091_9353" x="36" y="64" width="76" height="66.0674" filterUnits="userSpaceOnUse" color-interpolation-filters="sRGB">
<feFlood flood-opacity="0" result="BackgroundImageFix"/>
<feColorMatrix in="SourceAlpha" type="matrix" values="0 0 0 0 0 0 0 0 0 0 0 0 0 0 0 0 0 0 127 0" result="hardAlpha"/>
<feOffset dx="2" dy="8"/>
<feGaussianBlur stdDeviation="6"/>
<feComposite in2="hardAlpha" operator="out"/>
<feColorMatrix type="matrix" values="0 0 0 0 0 0 0 0 0 0.835294 0 0 0 0 0.294118 0 0 0 0.16 0"/>
<feBlend mode="normal" in2="BackgroundImageFix" result="effect1_dropShadow_1091_9353"/>
<feBlend mode="normal" in="SourceGraphic" in2="effect1_dropShadow_1091_9353" result="shape"/>
</filter>
<linearGradient id="paint0_linear_1091_9353" x1="21.4999" y1="24" x2="166" y2="225" gradientUnits="userSpaceOnUse">
<stop stop-color="#00D54B" stop-opacity="0.32"/>
<stop offset="1" stop-color="#00D54B" stop-opacity="0"/>
</linearGradient>
<linearGradient id="paint1_linear_1091_9353" x1="21.4999" y1="24" x2="166" y2="225" gradientUnits="userSpaceOnUse">
<stop stop-color="#00D54B" stop-opacity="0.32"/>
<stop offset="1" stop-color="#00D54B" stop-opacity="0"/>
</linearGradient>
<radialGradient id="paint2_radial_1091_9353" cx="0" cy="0" r="1" gradientUnits="userSpaceOnUse" gradientTransform="translate(64.2291 67.259) rotate(133.053) scale(56.3252 132.209)">
<stop stop-color="#00D54B"/>
<stop offset="1" stop-color="#00D54B" stop-opacity="0"/>
</radialGradient>
<linearGradient id="paint3_linear_1091_9353" x1="62.5" y1="74.7083" x2="75.2472" y2="109.804" gradientUnits="userSpaceOnUse">
<stop stop-color="#00D54B"/>
<stop offset="1" stop-color="#00D54B" stop-opacity="0"/>
</linearGradient>
</defs>
</svg>
