<svg width="168" height="180" viewBox="0 0 168 180" fill="none" xmlns="http://www.w3.org/2000/svg">
<g opacity="0.4" filter="url(#filter0_d_1091_9358)">
<path d="M121.65 34.9089C115.927 32.9121 111.34 28.2321 109.382 22.3856C108.138 18.67 104.709 16.1738 100.853 16.1738H51.1473C47.2905 16.1738 43.8614 18.67 42.6175 22.3856C40.6591 28.2321 36.0756 32.9121 30.3517 34.9089C26.7088 36.1786 24.261 39.6692 24.261 43.5922V56.3554C24.261 73.0108 29.1791 89.0485 38.4808 102.733C46.9907 115.254 58.7201 125.054 72.3976 131.072C73.5432 131.575 74.7715 131.826 75.9997 131.826C77.2288 131.826 78.457 131.575 79.6009 131.072C93.2801 125.054 105.01 115.254 113.519 102.733C122.821 89.0485 127.739 73.0108 127.739 56.3554V43.5922C127.739 39.6692 125.291 36.1786 121.65 34.9089Z" fill="white"/>
<path d="M121.65 34.9089C115.927 32.9121 111.34 28.2321 109.382 22.3856C108.138 18.67 104.709 16.1738 100.853 16.1738H51.1473C47.2905 16.1738 43.8614 18.67 42.6175 22.3856C40.6591 28.2321 36.0756 32.9121 30.3517 34.9089C26.7088 36.1786 24.261 39.6692 24.261 43.5922V56.3554C24.261 73.0108 29.1791 89.0485 38.4808 102.733C46.9907 115.254 58.7201 125.054 72.3976 131.072C73.5432 131.575 74.7715 131.826 75.9997 131.826C77.2288 131.826 78.457 131.575 79.6009 131.072C93.2801 125.054 105.01 115.254 113.519 102.733C122.821 89.0485 127.739 73.0108 127.739 56.3554V43.5922C127.739 39.6692 125.291 36.1786 121.65 34.9089Z" fill="url(#paint0_linear_1091_9358)" fill-opacity="0.56"/>
<path d="M121.403 35.617L121.403 35.6171C124.736 36.7793 126.989 39.9807 126.989 43.5922V56.3554C126.989 72.8615 122.116 88.7521 112.899 102.311L113.519 102.733L112.899 102.311C104.467 114.718 92.8475 124.425 79.2989 130.385L79.2986 130.385C78.2521 130.846 77.127 131.076 75.9997 131.076C74.8733 131.076 73.7481 130.846 72.6995 130.385C59.1527 124.425 47.5329 114.718 39.1011 102.311L38.4808 102.733L39.1011 102.311C29.8845 88.7521 25.011 72.8615 25.011 56.3554V43.5922C25.011 39.9808 27.2639 36.7794 30.5986 35.6171L30.5988 35.617C36.5461 33.5423 41.2981 28.6859 43.3287 22.6238L43.3287 22.6237C44.4724 19.2074 47.6197 16.9238 51.1473 16.9238H100.853C104.38 16.9238 107.527 19.2074 108.671 22.6237L108.671 22.6238C110.701 28.6861 115.457 33.5424 121.403 35.617Z" stroke="url(#paint1_radial_1091_9358)" stroke-opacity="0.52" stroke-width="1.5"/>
</g>
<g filter="url(#filter1_d_1091_9358)">
<path fill-rule="evenodd" clip-rule="evenodd" d="M98.4441 86.4784C98.4441 94.8573 91.7283 101.674 83.4749 101.674H68.97C60.7166 101.674 54 94.8573 54 86.4784V66.9775C54 62.4775 57.6056 58.8183 62.0378 58.8183H62.2647V49.168C62.2647 41.3565 68.5267 35 76.222 35C83.9174 35 90.1794 41.3565 90.1794 49.168V58.8183H90.4062C94.8393 58.8183 98.4441 62.4775 98.4441 66.9775V86.4784ZM83.5036 49.168C83.5036 45.0933 80.237 41.7765 76.222 41.7765C72.2079 41.7765 68.9413 45.0933 68.9413 49.168V58.8183H83.5036V49.168ZM62.0378 65.5948H90.4062C91.159 65.5948 91.7683 66.216 91.7683 66.9775V86.4784C91.7683 91.1205 88.048 94.8979 83.4749 94.8979H68.97C64.3969 94.8979 60.6757 91.1205 60.6757 86.4784V66.9775C60.6757 66.216 61.2877 65.5948 62.0378 65.5948ZM79.5599 83.4475C79.5599 85.3199 78.0648 86.8358 76.222 86.8358C74.3801 86.8358 72.8842 85.3199 72.8842 83.4475V77.0452C72.8842 75.1754 74.3801 73.6569 76.222 73.6569C78.0648 73.6569 79.5599 75.1754 79.5599 77.0452V83.4475Z" fill="url(#paint2_linear_1091_9358)" shape-rendering="crispEdges"/>
</g>
<defs>
<filter id="filter0_d_1091_9358" x="0.260986" y="0.173828" width="167.478" height="179.652" filterUnits="userSpaceOnUse" color-interpolation-filters="sRGB">
<feFlood flood-opacity="0" result="BackgroundImageFix"/>
<feColorMatrix in="SourceAlpha" type="matrix" values="0 0 0 0 0 0 0 0 0 0 0 0 0 0 0 0 0 0 127 0" result="hardAlpha"/>
<feOffset dx="8" dy="16"/>
<feGaussianBlur stdDeviation="16"/>
<feComposite in2="hardAlpha" operator="out"/>
<feColorMatrix type="matrix" values="0 0 0 0 0.0146945 0 0 0 0 0.191667 0 0 0 0 0.0770087 0 0 0 0.16 0"/>
<feBlend mode="normal" in2="BackgroundImageFix" result="effect1_dropShadow_1091_9358"/>
<feBlend mode="normal" in="SourceGraphic" in2="effect1_dropShadow_1091_9358" result="shape"/>
</filter>
<filter id="filter1_d_1091_9358" x="44" y="31" width="68.4441" height="90.6743" filterUnits="userSpaceOnUse" color-interpolation-filters="sRGB">
<feFlood flood-opacity="0" result="BackgroundImageFix"/>
<feColorMatrix in="SourceAlpha" type="matrix" values="0 0 0 0 0 0 0 0 0 0 0 0 0 0 0 0 0 0 127 0" result="hardAlpha"/>
<feOffset dx="2" dy="8"/>
<feGaussianBlur stdDeviation="6"/>
<feComposite in2="hardAlpha" operator="out"/>
<feColorMatrix type="matrix" values="0 0 0 0 0 0 0 0 0 0.835294 0 0 0 0 0.294118 0 0 0 0.16 0"/>
<feBlend mode="normal" in2="BackgroundImageFix" result="effect1_dropShadow_1091_9358"/>
<feBlend mode="normal" in="SourceGraphic" in2="effect1_dropShadow_1091_9358" result="shape"/>
</filter>
<linearGradient id="paint0_linear_1091_9358" x1="18.9946" y1="23.56" x2="139.789" y2="236.539" gradientUnits="userSpaceOnUse">
<stop stop-color="#00D54B" stop-opacity="0.32"/>
<stop offset="1" stop-color="#00D54B" stop-opacity="0"/>
</linearGradient>
<radialGradient id="paint1_radial_1091_9358" cx="0" cy="0" r="1" gradientUnits="userSpaceOnUse" gradientTransform="translate(69.0001 63.4999) rotate(139.821) scale(58.8982 136.611)">
<stop stop-color="#00D54B"/>
<stop offset="1" stop-color="#00D54B" stop-opacity="0"/>
</radialGradient>
<linearGradient id="paint2_linear_1091_9358" x1="66.6262" y1="40.643" x2="106.345" y2="93.6561" gradientUnits="userSpaceOnUse">
<stop stop-color="#00D54B"/>
<stop offset="1" stop-color="#00D54B" stop-opacity="0"/>
</linearGradient>
</defs>
</svg>
