<svg width="181" height="181" viewBox="0 0 181 181" fill="none" xmlns="http://www.w3.org/2000/svg">
<g opacity="0.4" filter="url(#filter0_d_1091_9363)">
<path d="M138.076 64.1827L133.087 62.9635C130.256 62.272 128.077 60.0757 127.038 57.3541C126.7 56.4688 126.335 55.5932 125.943 54.728C124.746 52.0826 124.722 49.0006 126.215 46.5103L128.766 42.2561C129.574 40.9111 129.361 39.1888 128.252 38.0806L118.586 28.4142C117.478 27.2998 115.752 27.0888 114.411 27.9006L110.156 30.4512C107.666 31.9443 104.584 31.9203 101.939 30.7234C101.073 30.3319 100.198 29.967 99.3126 29.6289C96.5909 28.5895 94.3947 26.4103 93.7032 23.5802L92.484 18.5902C92.103 17.0681 90.7385 16 89.1693 16H75.4974C73.9282 16 72.5636 17.0681 72.1827 18.5902L70.9633 23.581C70.2719 26.4107 68.0763 28.5898 65.3552 29.6293C64.4692 29.9678 63.5926 30.3332 62.7263 30.7252C60.0821 31.9217 57.0015 31.9448 54.5123 30.4524L50.2561 27.9006C48.9076 27.0924 47.1923 27.306 46.0806 28.4142L36.4142 38.0806C35.306 39.1888 35.0924 40.9111 35.9006 42.2561L38.4512 46.5103C39.9443 49.0006 39.9203 52.0826 38.7234 54.728C38.3319 55.5932 37.967 56.4688 37.6289 57.3541C36.5895 60.0757 34.4103 62.272 31.5802 62.9635L26.5902 64.1827C25.0681 64.5636 24 65.9282 24 67.4974V81.1693C24 82.7385 25.0681 84.103 26.5902 84.484L31.5802 85.7032C34.4103 86.3947 36.5895 88.5909 37.6289 91.3126C37.967 92.1978 38.3319 93.0734 38.7234 93.9387C39.9203 96.584 39.9443 99.6661 38.4512 102.156L35.9006 106.411C35.0924 107.756 35.306 109.478 36.4142 110.586L46.0806 120.252C47.1861 121.361 48.9049 121.567 50.2561 120.766L54.5103 118.215C57.0006 116.722 60.0826 116.746 62.728 117.943C63.5932 118.335 64.4688 118.7 65.3541 119.038C68.0757 120.077 70.272 122.256 70.9635 125.087L72.1827 130.076C72.5636 131.599 73.9282 132.667 75.4974 132.667H89.1693C90.7385 132.667 92.103 131.599 92.484 130.076L93.7032 125.087C94.3947 122.256 96.5909 120.077 99.3126 119.038C100.198 118.7 101.073 118.335 101.939 117.943C104.584 116.746 107.666 116.722 110.156 118.215L114.411 120.766C115.756 121.571 117.478 121.361 118.586 120.252L128.252 110.586C129.361 109.478 129.574 107.756 128.766 106.411L126.215 102.156C124.722 99.6661 124.746 96.584 125.943 93.9387C126.335 93.0734 126.7 92.1978 127.038 91.3126C128.077 88.5909 130.256 86.3947 133.087 85.7032L138.076 84.484C139.599 84.103 140.667 82.7385 140.667 81.1693V67.4974C140.667 65.9282 139.599 64.5636 138.076 64.1827Z" fill="white"/>
<path d="M138.076 64.1827L133.087 62.9635C130.256 62.272 128.077 60.0757 127.038 57.3541C126.7 56.4688 126.335 55.5932 125.943 54.728C124.746 52.0826 124.722 49.0006 126.215 46.5103L128.766 42.2561C129.574 40.9111 129.361 39.1888 128.252 38.0806L118.586 28.4142C117.478 27.2998 115.752 27.0888 114.411 27.9006L110.156 30.4512C107.666 31.9443 104.584 31.9203 101.939 30.7234C101.073 30.3319 100.198 29.967 99.3126 29.6289C96.5909 28.5895 94.3947 26.4103 93.7032 23.5802L92.484 18.5902C92.103 17.0681 90.7385 16 89.1693 16H75.4974C73.9282 16 72.5636 17.0681 72.1827 18.5902L70.9633 23.581C70.2719 26.4107 68.0763 28.5898 65.3552 29.6293C64.4692 29.9678 63.5926 30.3332 62.7263 30.7252C60.0821 31.9217 57.0015 31.9448 54.5123 30.4524L50.2561 27.9006C48.9076 27.0924 47.1923 27.306 46.0806 28.4142L36.4142 38.0806C35.306 39.1888 35.0924 40.9111 35.9006 42.2561L38.4512 46.5103C39.9443 49.0006 39.9203 52.0826 38.7234 54.728C38.3319 55.5932 37.967 56.4688 37.6289 57.3541C36.5895 60.0757 34.4103 62.272 31.5802 62.9635L26.5902 64.1827C25.0681 64.5636 24 65.9282 24 67.4974V81.1693C24 82.7385 25.0681 84.103 26.5902 84.484L31.5802 85.7032C34.4103 86.3947 36.5895 88.5909 37.6289 91.3126C37.967 92.1978 38.3319 93.0734 38.7234 93.9387C39.9203 96.584 39.9443 99.6661 38.4512 102.156L35.9006 106.411C35.0924 107.756 35.306 109.478 36.4142 110.586L46.0806 120.252C47.1861 121.361 48.9049 121.567 50.2561 120.766L54.5103 118.215C57.0006 116.722 60.0826 116.746 62.728 117.943C63.5932 118.335 64.4688 118.7 65.3541 119.038C68.0757 120.077 70.272 122.256 70.9635 125.087L72.1827 130.076C72.5636 131.599 73.9282 132.667 75.4974 132.667H89.1693C90.7385 132.667 92.103 131.599 92.484 130.076L93.7032 125.087C94.3947 122.256 96.5909 120.077 99.3126 119.038C100.198 118.7 101.073 118.335 101.939 117.943C104.584 116.746 107.666 116.722 110.156 118.215L114.411 120.766C115.756 121.571 117.478 121.361 118.586 120.252L128.252 110.586C129.361 109.478 129.574 107.756 128.766 106.411L126.215 102.156C124.722 99.6661 124.746 96.584 125.943 93.9387C126.335 93.0734 126.7 92.1978 127.038 91.3126C128.077 88.5909 130.256 86.3947 133.087 85.7032L138.076 84.484C139.599 84.103 140.667 82.7385 140.667 81.1693V67.4974C140.667 65.9282 139.599 64.5636 138.076 64.1827Z" fill="url(#paint0_linear_1091_9363)" fill-opacity="0.56"/>
<path d="M128.123 41.8704L128.123 41.8697C128.754 40.8205 128.587 39.4761 127.722 38.6109L118.056 28.9445L118.054 28.943C117.19 28.0738 115.844 27.9097 114.799 28.5422L114.796 28.5438L110.542 31.0945C107.807 32.734 104.461 32.6879 101.63 31.4067C100.778 31.0214 99.9162 30.6623 99.045 30.3296C96.1327 29.2173 93.734 26.8661 92.9746 23.7582L91.7564 18.7723C91.7562 18.7715 91.756 18.7707 91.7558 18.7698C91.4573 17.5819 90.3926 16.75 89.1693 16.75H75.4974C74.2738 16.75 73.209 17.5822 72.9107 18.7705C72.9105 18.7711 72.9104 18.7717 72.9102 18.7723L71.6918 23.7591C70.9326 26.8664 68.5346 29.2176 65.6228 30.3299C64.7509 30.663 63.8882 31.0227 63.0355 31.4085C60.2049 32.6893 56.8601 32.7345 54.1267 31.0957L49.8705 28.5439C49.8705 28.5439 49.8704 28.5439 49.8704 28.5438C48.8178 27.913 47.4798 28.0789 46.6106 28.9448C46.6105 28.945 46.6103 28.9452 46.6101 28.9453L36.9445 38.6109C36.0793 39.4761 35.9129 40.8205 36.5434 41.8697L36.5438 41.8704L39.0945 46.1247C40.734 48.8593 40.6879 52.2055 39.4067 55.0372C39.0214 55.8888 38.6623 56.7505 38.3296 57.6217C37.2173 60.534 34.8661 62.9327 31.7582 63.692L26.7723 64.9102C26.7717 64.9104 26.7711 64.9105 26.7705 64.9107C25.5822 65.209 24.75 66.2738 24.75 67.4974V81.1693C24.75 82.3926 25.5819 83.4573 26.7698 83.7558C26.7707 83.756 26.7715 83.7562 26.7723 83.7564L31.7582 84.9746C34.8661 85.734 37.2173 88.1327 38.3296 91.045C38.6623 91.9162 39.0214 92.7779 39.4067 93.6295C40.6879 96.4611 40.734 99.8074 39.0945 102.542L36.5438 106.796L36.5434 106.797C35.9129 107.846 36.0793 109.191 36.9445 110.056L46.6109 119.722L46.6116 119.723C47.4706 120.584 48.8113 120.75 49.8716 120.122C49.8723 120.122 49.8729 120.121 49.8736 120.121L128.123 41.8704ZM128.123 41.8704L125.572 46.1247C123.933 48.8593 123.979 52.2055 125.26 55.0372C125.645 55.8887 126.004 56.7505 126.337 57.6216C127.449 60.534 129.801 62.9327 132.909 63.692L137.894 64.9102L128.123 41.8704Z" stroke="url(#paint1_radial_1091_9363)" stroke-opacity="0.52" stroke-width="1.5"/>
</g>
<g filter="url(#filter1_d_1091_9363)">
<path fill-rule="evenodd" clip-rule="evenodd" d="M52 74.7617C52 91.7243 65.7992 105.523 82.7617 105.523C99.7243 105.523 113.523 91.7243 113.523 74.7617C113.523 57.7992 99.7243 44 82.7617 44C65.7992 44 52 57.7992 52 74.7617ZM58.8359 74.7617C58.8359 61.5705 69.5705 50.8359 82.7617 50.8359C95.9529 50.8359 106.688 61.5705 106.688 74.7617C106.688 87.9529 95.9529 98.6875 82.7617 98.6875C69.5705 98.6875 58.8359 87.9529 58.8359 74.7617ZM86.1797 91.2223V94.9963C86.1797 96.8851 84.6505 98.4142 82.7617 98.4142C80.8729 98.4142 79.3437 96.8851 79.3437 94.9963V91.184C77.0882 90.3758 75.1131 88.8573 73.883 86.7282C72.9351 85.0922 73.4958 83.0031 75.1283 82.0587C76.7634 81.1001 78.856 81.6715 79.7977 83.3031C80.4083 84.3614 81.5432 85.0156 82.7617 85.0156C84.6478 85.0156 86.1797 83.4838 86.1797 81.5976C86.1797 79.7115 84.6478 78.1797 82.7617 78.1797C77.1078 78.1797 72.5078 73.5797 72.5078 67.9258C72.5078 63.4753 75.3739 59.7173 79.3437 58.3012V54.391C79.3437 52.5013 80.8729 50.973 82.7617 50.973C84.6505 50.973 86.1797 52.5013 86.1797 54.391V58.3394C88.4352 59.1468 90.4103 60.6662 91.6404 62.7953C92.5884 64.4313 92.0276 66.5203 90.3952 67.4647C88.7467 68.41 86.6639 67.8492 85.7257 66.2204C85.1151 65.162 83.9803 64.5078 82.7617 64.5078C80.8756 64.5078 79.3437 66.0397 79.3437 67.9258C79.3437 69.8119 80.8756 71.3437 82.7617 71.3437C88.4156 71.3437 93.0156 75.9438 93.0156 81.5976C93.0156 86.0481 90.1495 89.8061 86.1797 91.2223Z" fill="url(#paint2_linear_1091_9363)" shape-rendering="crispEdges"/>
</g>
<defs>
<filter id="filter0_d_1091_9363" x="0" y="0" width="180.667" height="180.667" filterUnits="userSpaceOnUse" color-interpolation-filters="sRGB">
<feFlood flood-opacity="0" result="BackgroundImageFix"/>
<feColorMatrix in="SourceAlpha" type="matrix" values="0 0 0 0 0 0 0 0 0 0 0 0 0 0 0 0 0 0 127 0" result="hardAlpha"/>
<feOffset dx="8" dy="16"/>
<feGaussianBlur stdDeviation="16"/>
<feComposite in2="hardAlpha" operator="out"/>
<feColorMatrix type="matrix" values="0 0 0 0 0.0146945 0 0 0 0 0.191667 0 0 0 0 0.0770087 0 0 0 0.16 0"/>
<feBlend mode="normal" in2="BackgroundImageFix" result="effect1_dropShadow_1091_9363"/>
<feBlend mode="normal" in="SourceGraphic" in2="effect1_dropShadow_1091_9363" result="shape"/>
</filter>
<filter id="filter1_d_1091_9363" x="42" y="40" width="85.5234" height="85.5234" filterUnits="userSpaceOnUse" color-interpolation-filters="sRGB">
<feFlood flood-opacity="0" result="BackgroundImageFix"/>
<feColorMatrix in="SourceAlpha" type="matrix" values="0 0 0 0 0 0 0 0 0 0 0 0 0 0 0 0 0 0 127 0" result="hardAlpha"/>
<feOffset dx="2" dy="8"/>
<feGaussianBlur stdDeviation="6"/>
<feComposite in2="hardAlpha" operator="out"/>
<feColorMatrix type="matrix" values="0 0 0 0 0 0 0 0 0 0.835294 0 0 0 0 0.294118 0 0 0 0.16 0"/>
<feBlend mode="normal" in2="BackgroundImageFix" result="effect1_dropShadow_1091_9363"/>
<feBlend mode="normal" in="SourceGraphic" in2="effect1_dropShadow_1091_9363" result="shape"/>
</filter>
<linearGradient id="paint0_linear_1091_9363" x1="18.0624" y1="23.451" x2="132.652" y2="249.26" gradientUnits="userSpaceOnUse">
<stop stop-color="#00D54B" stop-opacity="0.32"/>
<stop offset="1" stop-color="#00D54B" stop-opacity="0"/>
</linearGradient>
<radialGradient id="paint1_radial_1091_9363" cx="0" cy="0" r="1" gradientUnits="userSpaceOnUse" gradientTransform="translate(74.4412 63.7412) rotate(142.927) scale(63.5886 143.912)">
<stop stop-color="#00D54B"/>
<stop offset="1" stop-color="#00D54B" stop-opacity="0"/>
</radialGradient>
<linearGradient id="paint2_linear_1091_9363" x1="69.4783" y1="49.2071" x2="100.007" y2="110.337" gradientUnits="userSpaceOnUse">
<stop stop-color="#00D54B"/>
<stop offset="1" stop-color="#00D54B" stop-opacity="0"/>
</linearGradient>
</defs>
</svg>
