<svg width="14" height="14" viewBox="0 0 14 14" fill="none" xmlns="http://www.w3.org/2000/svg">
<path fill-rule="evenodd" clip-rule="evenodd" d="M13.6395 6.83391C13.5916 6.72851 13.4586 6.61937 13.3544 6.60012C13.3082 6.5916 12.9514 6.58818 12.5615 6.59256C11.8929 6.6001 11.8485 6.60359 11.7806 6.65431C11.6438 6.75652 11.6011 6.83983 11.6011 7.00469C11.6011 7.16959 11.6438 7.25292 11.7807 7.35508C11.8497 7.40658 11.8856 7.40885 12.6314 7.40885C13.3772 7.40885 13.4131 7.40658 13.4821 7.35508C13.5217 7.32551 13.577 7.27065 13.605 7.23318C13.6695 7.14688 13.6874 6.93946 13.6395 6.83391ZM11.9641 11.4213C11.9421 11.3766 11.6986 11.1166 11.4231 10.8435C10.8843 10.3093 10.8503 10.2873 10.6308 10.3285C10.5024 10.3525 10.3464 10.5085 10.3223 10.6368C10.2811 10.8563 10.3032 10.8902 10.838 11.4293C11.1115 11.7051 11.3734 11.9487 11.42 11.9708C11.7628 12.1335 12.1317 11.7609 11.9641 11.4213ZM11.8218 2.45716C11.789 2.3477 11.6447 2.21021 11.5303 2.17941C11.3211 2.12312 11.2588 2.1633 10.7049 2.71125C10.4271 2.98605 10.1836 3.24862 10.1637 3.29477C10.0182 3.6316 10.3482 3.97678 10.693 3.84844C10.8002 3.80854 11.7394 2.86843 11.7989 2.74153C11.8521 2.62808 11.8565 2.57319 11.8218 2.45716ZM10.7371 6.62662C10.6098 5.78793 10.3991 5.26709 9.9564 4.69711C9.39664 3.97641 8.57435 3.47766 7.66831 3.30932C7.34005 3.24834 6.65491 3.24834 6.32665 3.30932C4.78888 3.59502 3.58669 4.79682 3.3009 6.33409C3.23989 6.66223 3.23989 7.34716 3.3009 7.6753C3.55211 9.0265 4.50781 10.1275 5.80656 10.5619C6.23007 10.7035 6.49859 10.7448 6.99748 10.7448C7.49637 10.7448 7.76489 10.7035 8.1884 10.5619C9.48159 10.1293 10.4473 9.02059 10.6905 7.68917C10.731 7.46731 10.761 6.78408 10.7371 6.62662ZM7.37871 0.576047C7.3021 0.403199 7.10262 0.304117 6.90564 0.341064C6.78391 0.363879 6.63975 0.493938 6.60488 0.612368C6.58686 0.673565 6.57973 0.966224 6.585 1.42944C6.59272 2.11079 6.59619 2.15517 6.64698 2.22309C6.74922 2.3599 6.83256 2.40256 6.99748 2.40256C7.1624 2.40256 7.24574 2.35988 7.34798 2.22309C7.399 2.15483 7.40208 2.11285 7.40787 1.40336C7.41259 0.821277 7.40615 0.637947 7.37871 0.576047ZM7.37871 11.8402C7.3021 11.6673 7.10262 11.5683 6.90564 11.6052C6.78391 11.628 6.63975 11.7581 6.60488 11.8765C6.58685 11.9377 6.57973 12.2304 6.585 12.6936C6.59272 13.3749 6.59619 13.4193 6.64698 13.4872C6.74922 13.624 6.83256 13.6667 6.99748 13.6667C7.1624 13.6667 7.24574 13.624 7.34798 13.4872C7.399 13.419 7.40208 13.377 7.40787 12.6675C7.41259 12.0854 7.40615 11.9021 7.37871 11.8402ZM4.10384 3.62806C4.07225 3.49521 4.04226 3.4598 3.5369 2.95899C3.12385 2.54967 3.02831 2.46775 2.93506 2.443C2.62786 2.36147 2.34444 2.64698 2.43268 2.94908C2.45746 3.0339 2.56338 3.15436 2.97638 3.56733C3.53411 4.12504 3.58672 4.15984 3.79898 4.11145C3.91625 4.0847 4.06487 3.95203 4.08842 3.85308C4.0974 3.81535 4.10874 3.7669 4.11359 3.74539C4.11847 3.72388 4.11409 3.67108 4.10384 3.62806ZM3.81124 10.3385C3.70824 10.1609 3.47827 10.087 3.28635 10.1698C3.24018 10.1898 2.97753 10.4332 2.70264 10.7109C2.2809 11.1369 2.19827 11.2331 2.17334 11.3269C2.09337 11.6283 2.37261 11.9072 2.67423 11.8271C2.76761 11.8024 2.86472 11.7189 3.29008 11.2981C3.56781 11.0233 3.81134 10.7608 3.8313 10.7146C3.88292 10.5951 3.87512 10.4487 3.81124 10.3385ZM2.37165 6.83391C2.32378 6.72851 2.19074 6.61937 2.08661 6.60012C2.04039 6.5916 1.68358 6.58818 1.29369 6.59256C0.625108 6.6001 0.580688 6.60359 0.512821 6.65431C0.375964 6.75652 0.333292 6.83983 0.333292 7.00469C0.333292 7.16959 0.376016 7.25292 0.512873 7.35508C0.581862 7.40658 0.617804 7.40885 1.36357 7.40885C2.10933 7.40885 2.14527 7.40658 2.21426 7.35508C2.25388 7.32551 2.3092 7.27065 2.33719 7.23318C2.40164 7.14688 2.41953 6.93946 2.37165 6.83391Z" fill="#073417"/>
</svg>
