<svg width="12" height="12" viewBox="0 0 12 12" fill="none" xmlns="http://www.w3.org/2000/svg">
<path fill-rule="evenodd" clip-rule="evenodd" d="M3.8973 0.0875217C3.12979 0.394074 2.4839 0.813703 1.88815 1.39283C0.70287 2.54504 0.065687 3.97541 0.00425336 5.62195C-0.0435173 6.90264 0.312072 8.16435 1.0222 9.23382C2.99398 12.2034 7.0406 12.8967 9.89157 10.7534C10.1784 10.5377 10.6877 10.0525 10.9177 9.77571C11.3289 9.28089 11.6796 8.68487 11.919 8.07417C12.0483 7.74425 12.0261 7.58983 11.8282 7.44207C11.7154 7.3578 11.5944 7.36085 11.281 7.45586C10.7152 7.62739 10.2388 7.69831 9.64986 7.69863C8.62729 7.69921 7.64307 7.41035 6.76458 6.85184C6.15643 6.46519 5.53739 5.84641 5.14624 5.2341C4.27383 3.86847 4.06428 2.21827 4.56333 0.6438C4.6377 0.409163 4.6358 0.276918 4.5565 0.170722C4.40783 -0.0284081 4.2404 -0.0495523 3.8973 0.0875217Z" fill="white"/>
</svg>
