<svg width="30" height="30" viewBox="0 0 30 30" fill="none" xmlns="http://www.w3.org/2000/svg">
<path fill-rule="evenodd" clip-rule="evenodd" d="M11.3012 0.0663707C8.40933 0.362104 5.72859 1.64194 3.65208 3.71817C2.57757 4.7926 1.82759 5.84411 1.20332 7.15143C-0.166432 10.02 -0.373449 13.2252 0.616473 16.2356C1.23999 18.1319 2.21702 19.7058 3.66415 21.1453C6.85546 24.3197 11.3612 25.5491 15.7611 24.446C17.3057 24.0588 18.9153 23.2995 20.1425 22.379C20.3496 22.2237 20.5383 22.1038 20.5617 22.1126C20.585 22.1214 22.3601 23.8564 24.5062 25.9682C26.9485 28.3713 28.4901 29.8455 28.6269 29.9088C29.2026 30.1749 29.8463 29.8347 29.9659 29.2013C30.0589 28.7087 30.3852 29.0612 23.9683 22.7227L21.9613 20.7403L22.3042 20.3427C23.7656 18.6478 24.7347 16.5037 25.1004 14.1564C25.243 13.2414 25.2438 11.5628 25.1022 10.6393C24.6887 7.9432 23.5129 5.64451 21.5448 3.68493C18.854 1.0058 15.0962 -0.321688 11.3012 0.0663707ZM14.0966 2.0266C16.4754 2.37427 18.5484 3.40151 20.1972 5.0497C22.2147 7.06649 23.2609 9.58571 23.2609 12.4272C23.2609 13.4745 23.1705 14.1967 22.9251 15.1082C21.6818 19.7275 17.47 22.92 12.6192 22.92C9.74475 22.92 7.03688 21.812 5.05317 19.8243C3.42931 18.1972 2.45333 16.3009 2.07034 14.0287C1.93824 13.2451 1.93895 11.6054 2.07169 10.8174C2.84868 6.2045 6.38648 2.7489 11.0669 2.03117C11.8293 1.91428 13.3124 1.91205 14.0966 2.0266Z" fill="black"/>
</svg>
