<svg width="50" height="50" viewBox="0 0 50 50" fill="none" xmlns="http://www.w3.org/2000/svg">
<path fill-rule="evenodd" clip-rule="evenodd" d="M24.4039 0.247166C24.1783 0.472871 24.0083 1.37112 22.7292 9.09344C21.9463 13.8208 21.2701 17.7784 21.2265 17.8881C21.1595 18.0573 20.6527 17.7365 17.9192 15.7952C14.4374 13.3225 14.2453 13.2288 13.7453 13.7609C13.25 14.2882 13.3393 14.4685 15.7993 17.9113C17.0625 19.6791 18.0466 21.1559 17.9863 21.193C17.926 21.2302 13.9667 21.9111 9.1879 22.7062C1.37728 24.0056 0.473792 24.1772 0.24764 24.4034C-0.0825466 24.7336 -0.0825466 25.2664 0.24764 25.5966C0.473792 25.8228 1.37728 25.9944 9.1879 27.2938C13.9667 28.0889 17.926 28.7698 17.9863 28.807C18.0466 28.8441 17.0625 30.3209 15.7993 32.0887C13.3194 35.5594 13.2254 35.7515 13.7609 36.2547C14.2847 36.7466 14.4659 36.6573 17.9192 34.2048C20.6527 32.2635 21.1595 31.9427 21.2265 32.1119C21.2701 32.2216 21.9463 36.1792 22.7292 40.9066C24.0083 48.6289 24.1783 49.5271 24.4039 49.7528C24.7336 50.0826 25.2667 50.0824 25.5966 49.7524C25.8228 49.5262 25.9944 48.6227 27.2938 40.8121C28.0889 36.0333 28.7698 32.074 28.807 32.0137C28.8441 31.9535 30.3209 32.9375 32.0887 34.2007C35.5594 36.6807 35.7515 36.7746 36.2547 36.2391C36.75 35.7118 36.6607 35.5315 34.2007 32.0887C32.9375 30.3209 31.9534 28.8441 32.0137 28.807C32.074 28.7698 36.0333 28.0889 40.8121 27.2938C48.6227 25.9944 49.5262 25.8228 49.7524 25.5966C50.0825 25.2664 50.0825 24.7336 49.7524 24.4034C49.5262 24.1772 48.6227 24.0056 40.8121 22.7062C36.0333 21.9111 32.074 21.2302 32.0137 21.193C31.9534 21.1559 32.9375 19.6791 34.2007 17.9113C36.6806 14.4406 36.7746 14.2485 36.2391 13.7453C35.7117 13.25 35.5315 13.3393 32.0887 15.7993C30.3209 17.0625 28.8441 18.0465 28.807 17.9863C28.7698 17.926 28.0889 13.9667 27.2938 9.18788C25.9944 1.37726 25.8228 0.473764 25.5966 0.247612C25.2667 -0.0823512 24.7336 -0.0825746 24.4039 0.247166ZM19.0218 4.68526C12.9854 6.40775 7.86123 10.9905 5.47068 16.8047C4.76007 18.533 4.32373 20.118 4.4598 20.4761C4.58304 20.8001 4.99002 21.0931 5.31686 21.0931C5.77363 21.0931 6.10404 20.65 6.35731 19.6978C8.03481 13.3904 13.3905 8.03479 19.6978 6.35729C20.6616 6.101 21.0931 5.77338 21.0931 5.29819C21.0931 4.98922 20.6921 4.50488 20.3676 4.42194C20.2448 4.39057 19.6392 4.50912 19.0218 4.68526ZM29.5048 4.46112C29.1973 4.58391 28.9069 4.9996 28.9069 5.31684C28.9069 5.78912 29.3475 6.09709 30.4696 6.40875C35.0343 7.67681 39.1856 10.8895 41.6926 15.0941C42.4039 16.2871 43.2197 18.1934 43.5912 19.5304C43.9915 20.9716 44.4888 21.403 45.1863 20.9144C45.6493 20.5901 45.6696 20.3062 45.3186 19.06C44.6685 16.7515 43.443 14.2687 41.9894 12.3156C41.045 11.0465 38.9534 8.95503 37.6844 8.01057C35.4556 6.35182 32.7013 5.0745 29.9115 4.40575C29.8194 4.38365 29.6365 4.40854 29.5048 4.46112ZM26.3166 14.2541C27.0545 18.6848 27.6431 21.9176 27.7386 22.0635C27.8282 22.2002 28.0901 22.3606 28.3205 22.4198C28.5509 22.4789 32.0171 23.0707 36.023 23.7347C40.0288 24.3988 43.3065 24.9682 43.3065 25C43.3065 25.0318 40.0288 25.6012 36.023 26.2653C32.0171 26.9293 28.5509 27.521 28.3205 27.5802C28.0901 27.6394 27.8282 27.7998 27.7386 27.9365C27.6431 28.0824 27.0545 31.3152 26.3166 35.7459C25.6242 39.9043 25.0317 43.3065 25 43.3065C24.9683 43.3065 24.3758 39.9043 23.6834 35.7459C22.9455 31.3152 22.3569 28.0824 22.2614 27.9365C22.1718 27.7998 21.9099 27.6394 21.6795 27.5802C21.4491 27.521 17.9829 26.9293 13.977 26.2653C9.97106 25.6012 6.69353 25.0318 6.69353 25C6.69353 24.9682 9.97117 24.3988 13.977 23.7347C17.9829 23.0707 21.4491 22.4789 21.6795 22.4198C21.9099 22.3606 22.1718 22.2002 22.2614 22.0635C22.3569 21.9176 22.9455 18.6848 23.6834 14.2541C24.3758 10.0957 24.9683 6.69351 25 6.69351C25.0317 6.69351 25.6242 10.0957 26.3166 14.2541ZM19.7257 19.281C20.8987 20.124 21.0476 20.3413 20.6945 20.6945C20.3413 21.0476 20.124 20.8987 19.281 19.7257C18.2689 18.3177 18.219 18.2382 18.4247 18.3633C18.511 18.4157 19.0965 18.8287 19.7257 19.281ZM31.4619 18.6653C29.896 20.9294 29.7128 21.1017 29.3055 20.6945C28.9486 20.3375 29.101 20.1279 30.3859 19.2088C31.0766 18.7147 31.6576 18.3088 31.6772 18.3065C31.6967 18.3043 31.5998 18.4658 31.4619 18.6653ZM4.81365 29.0856C4.35074 29.4099 4.33043 29.6938 4.68138 30.94C5.32981 33.2427 6.55098 35.719 8.00746 37.6844C8.93663 38.9384 11.031 41.0307 12.3156 41.9882C14.2641 43.4408 16.7494 44.668 19.06 45.3186C20.3062 45.6696 20.5901 45.6493 20.9144 45.1864C21.4027 44.4893 20.9718 43.9922 19.5304 43.5897C14.9705 42.3166 10.8037 39.0924 8.3074 34.9059C7.59613 33.7129 6.78026 31.8066 6.40877 30.4696C6.00849 29.0284 5.5112 28.597 4.81365 29.0856ZM44.1577 29.158C43.9698 29.328 43.8035 29.6975 43.6427 30.3022C41.9642 36.6132 36.6132 41.9642 30.3022 43.6427C29.0393 43.9786 28.6159 44.5158 29.0856 45.1864C29.4099 45.6493 29.6938 45.6696 30.94 45.3186C34.3408 44.361 37.3545 42.5723 39.9634 39.9634C42.5723 37.3545 44.361 34.3408 45.3186 30.94C45.6696 29.6938 45.6493 29.4099 45.1863 29.0856C44.8325 28.8378 44.4845 28.8623 44.1577 29.158ZM20.6945 29.3055C21.0476 29.6587 20.8987 29.876 19.7257 30.719C18.3177 31.7311 18.2382 31.781 18.3633 31.5753C18.4157 31.489 18.8287 30.9035 19.281 30.2743C20.124 29.1013 20.3413 28.9524 20.6945 29.3055ZM30.5536 30.051C31.5728 31.4789 31.7575 31.763 31.5815 31.6314C31.4918 31.5644 30.9035 31.1453 30.2743 30.7C29.1025 29.871 28.954 29.6571 29.3055 29.3055C29.6458 28.9651 29.8771 29.1033 30.5536 30.051Z" fill="#00d56e5c"/>
</svg>
