<svg width="32" height="32" viewBox="0 0 32 32" fill="none" xmlns="http://www.w3.org/2000/svg">
<path d="M27 0H5C2.23858 0 0 2.23858 0 5V27C0 29.7614 2.23858 32 5 32H27C29.7614 32 32 29.7614 32 27V5C32 2.23858 29.7614 0 27 0Z" fill="#878787"/>
<path d="M26.6666 15.9999C26.6666 10.1333 21.8666 5.33325 15.9999 5.33325C10.1333 5.33325 5.33325 10.1333 5.33325 15.9999C5.33325 21.3333 9.19992 25.7332 14.2666 26.5333V19.0666H11.5999V15.9999H14.2666V13.5999C14.2666 10.9333 15.8666 9.46659 18.2666 9.46659C19.4666 9.46659 20.6666 9.73325 20.6666 9.73325V12.3999H19.3333C17.9999 12.3999 17.5999 13.1999 17.5999 13.9999V15.9999H20.5333L19.9999 19.0666H17.4666V26.6666C22.7999 25.8666 26.6666 21.3333 26.6666 15.9999Z" fill="#151515"/>
</svg>
