<svg width="32" height="32" viewBox="0 0 32 32" fill="none" xmlns="http://www.w3.org/2000/svg">
<path d="M27 0H5C2.23858 0 0 2.23858 0 5V27C0 29.7614 2.23858 32 5 32H27C29.7614 32 32 29.7614 32 27V5C32 2.23858 29.7614 0 27 0Z" fill="#878787"/>
<path d="M15.9999 7.26096C18.8272 7.26096 19.2128 7.26096 20.3694 7.26096C21.3975 7.26096 21.9116 7.51799 22.2971 7.64651C22.8112 7.90353 23.1967 8.03205 23.5822 8.41759C23.9678 8.80313 24.2248 9.18867 24.3533 9.70273C24.4818 10.0883 24.6104 10.6023 24.7389 11.6304C24.7389 12.7871 24.7389 13.0441 24.7389 15.9999C24.7389 18.9557 24.7389 19.2128 24.7389 20.3694C24.7389 21.3975 24.4818 21.9116 24.3533 22.2971C24.0963 22.8112 23.9678 23.1967 23.5822 23.5822C23.1967 23.9678 22.8112 24.2248 22.2971 24.3533C21.9116 24.4818 21.3975 24.6104 20.3694 24.7389C19.2128 24.7389 18.9557 24.7389 15.9999 24.7389C13.0441 24.7389 12.7871 24.7389 11.6304 24.7389C10.6023 24.7389 10.0883 24.4818 9.70273 24.3533C9.18867 24.0963 8.80313 23.9678 8.41759 23.5822C8.03205 23.1967 7.77502 22.8112 7.64651 22.2971C7.51799 21.9116 7.38948 21.3975 7.26096 20.3694C7.26096 19.2128 7.26096 18.9557 7.26096 15.9999C7.26096 13.0441 7.26096 12.7871 7.26096 11.6304C7.26096 10.6023 7.51799 10.0883 7.64651 9.70273C7.90353 9.18867 8.03205 8.80313 8.41759 8.41759C8.80313 8.03205 9.18867 7.77502 9.70273 7.64651C10.0883 7.51799 10.6023 7.38948 11.6304 7.26096C12.7871 7.26096 13.1726 7.26096 15.9999 7.26096ZM15.9999 5.33325C13.0441 5.33325 12.7871 5.33325 11.6304 5.33325C10.4738 5.33325 9.70273 5.59028 9.06016 5.84731C8.41759 6.10434 7.77502 6.48988 7.13245 7.13245C6.48988 7.77502 6.23285 8.28908 5.84731 9.06016C5.59028 9.70273 5.46177 10.4738 5.33325 11.6304C5.33325 12.7871 5.33325 13.1726 5.33325 15.9999C5.33325 18.9557 5.33325 19.2128 5.33325 20.3694C5.33325 21.526 5.59028 22.2971 5.84731 22.9397C6.10434 23.5822 6.48988 24.2248 7.13245 24.8674C7.77502 25.51 8.28908 25.767 9.06016 26.1525C9.70273 26.4096 10.4738 26.5381 11.6304 26.6666C12.7871 26.6666 13.1726 26.6666 15.9999 26.6666C18.8272 26.6666 19.2128 26.6666 20.3694 26.6666C21.526 26.6666 22.2971 26.4096 22.9397 26.1525C23.5822 25.8955 24.2248 25.51 24.8674 24.8674C25.51 24.2248 25.767 23.7108 26.1525 22.9397C26.4096 22.2971 26.5381 21.526 26.6666 20.3694C26.6666 19.2128 26.6666 18.8272 26.6666 15.9999C26.6666 13.1726 26.6666 12.7871 26.6666 11.6304C26.6666 10.4738 26.4096 9.70273 26.1525 9.06016C25.8955 8.41759 25.51 7.77502 24.8674 7.13245C24.2248 6.48988 23.7108 6.23285 22.9397 5.84731C22.2971 5.59028 21.526 5.46177 20.3694 5.33325C19.2128 5.33325 18.9557 5.33325 15.9999 5.33325Z" fill="#151515"/>
<path d="M15.9999 10.4738C12.9156 10.4738 10.4738 12.9156 10.4738 15.9999C10.4738 19.0843 12.9156 21.526 15.9999 21.526C19.0843 21.526 21.526 19.0843 21.526 15.9999C21.526 12.9156 19.0843 10.4738 15.9999 10.4738ZM15.9999 19.5983C14.0722 19.5983 12.4015 18.0561 12.4015 15.9999C12.4015 14.0722 13.9437 12.4015 15.9999 12.4015C17.9276 12.4015 19.5983 13.9437 19.5983 15.9999C19.5983 17.9276 17.9276 19.5983 15.9999 19.5983Z" fill="#151515"/>
<path d="M21.6545 11.6304C22.3643 11.6304 22.9397 11.0551 22.9397 10.3453C22.9397 9.63554 22.3643 9.06016 21.6545 9.06016C20.9448 9.06016 20.3694 9.63554 20.3694 10.3453C20.3694 11.0551 20.9448 11.6304 21.6545 11.6304Z" fill="#151515"/>
</svg>
