<svg width="32" height="32" viewBox="0 0 32 32" fill="none" xmlns="http://www.w3.org/2000/svg">
<path d="M27 0H5C2.23858 0 0 2.23858 0 5V27C0 29.7614 2.23858 32 5 32H27C29.7614 32 32 29.7614 32 27V5C32 2.23858 29.7614 0 27 0Z" fill="#878787"/>
<path d="M5.46656 14.7027C11.1932 12.0684 15.0118 10.3317 16.9225 9.49267C22.3778 7.09693 23.5114 6.68077 24.2502 6.66688C24.4127 6.66401 24.7761 6.70653 25.0114 6.90816C25.2102 7.07842 25.2648 7.30842 25.291 7.46985C25.3172 7.63127 25.3498 7.999 25.3239 8.28633C25.0282 11.5659 23.7491 19.5246 23.0983 23.1978C22.8229 24.752 22.2807 25.2732 21.7558 25.3242C20.615 25.435 19.7488 24.5282 18.6439 23.7635C16.915 22.5669 15.9383 21.822 14.26 20.6543C12.3206 19.3049 13.5778 18.5632 14.6831 17.3511C14.9724 17.0339 19.9986 12.207 20.0959 11.7691C20.1081 11.7143 20.1194 11.5102 20.0045 11.4024C19.8896 11.2946 19.7201 11.3315 19.5978 11.3608C19.4244 11.4023 16.6624 13.3298 11.3119 17.1432C10.5279 17.7116 9.81777 17.9885 9.18155 17.974C8.48015 17.958 7.13096 17.5553 6.12797 17.2111C4.89777 16.7889 3.92003 16.5656 4.00517 15.8486C4.04951 15.4751 4.53664 15.0931 5.46656 14.7027Z" fill="#151515"/>
</svg>
